# xmcd
#
# Track frame offsets:
#	150
#	18470
#	33850
#	52865
#	74495
#	91750
#	112822
#	129327
#	146067
#	165425
#	184415
#
# Disc length: 2676 seconds
#
# Revision: 1
# Processed by: cddbd v1.5.1PL0 Copyright (c) Steve Scherf et al.
# Submitted via: audiograbber 1.83.01
#
DISCID=890a720b
DTITLE=Ty Herndon - This Is Ty Herndon - Not Greatest Hits
DYEAR=2002
DGENRE=
TTITLE0=If the Road Runs Out
TTITLE1=Heather's Wall
TTITLE2=I'd Move Heaven and Earth
TTITLE3=Remember When
TTITLE4=A Few Short Years
TTITLE5=Learning How to Love
TTITLE6=When Yesterday Was Mine
TTITLE7=If I Ever Fall In Love
TTITLE8=Stained Glass Window
TTITLE9=The One You Run To
TTITLE10=Stones
EXTD=
EXTT0=
EXTT1=
EXTT2=
EXTT3=
EXTT4=
EXTT5=
EXTT6=
EXTT7=
EXTT8=
EXTT9=
EXTT10=
PLAYORDER=
